# xmcd
#
# Track frame offsets:
#	150
#	13987
#	30065
#	46655
#	62340
#	82402
#	99507
#	122375
#	140035
#	156457
#	173660
#	192277
#
# Disc length: 2814 seconds
#
# Revision: 0
# Processed by: cddbd v1.5.1PL2 Copyright (c) Steve Scherf et al.
# Submitted via: dBpowerAMP V4.0
#
DISCID=950afc0c
DTITLE=Phil Vassar - Shaken Not Stirred
DYEAR=2004
DGENRE=Country
TTITLE0=Good Ole Days
TTITLE1=In A Real Love
TTITLE2=What Happens In Vegas
TTITLE3=I'll Take That As A Yes (The Hot Tub Song)
TTITLE4=Erase
TTITLE5=Here To Forget
TTITLE6=I Miss The Innocence
TTITLE7=Amazing Grace
TTITLE8=Nobody Knows Me Like You
TTITLE9=Dancin' With Dreams
TTITLE10=Gone By Dawn
TTITLE11=Black and Whites
EXTD=
EXTT0=
EXTT1=
EXTT2=
EXTT3=
EXTT4=
EXTT5=
EXTT6=
EXTT7=
EXTT8=
EXTT9=
EXTT10=
EXTT11=
PLAYORDER=
